<svg xmlns="http://www.w3.org/2000/svg" viewBox="0 0 180 150">
<g fill="#F4F7FB">
  <polygon points="12,61 31,49 43,51 27,62"/><polygon points="29,46 47,33 43,51"/><polygon points="45,32 57,41 43,51"/><polygon points="27,65 45,55 56,64 39,72"/><polygon points="14,64 27,65 23,78"/><polygon points="39,74 55,67 48,83"/><polygon points="51,45 63,53 55,58"/>
  <polygon points="168,61 149,49 137,51 153,62"/><polygon points="151,46 133,33 137,51"/><polygon points="135,32 123,41 137,51"/><polygon points="153,65 135,55 124,64 141,72"/><polygon points="166,64 153,65 157,78"/><polygon points="141,74 125,67 132,83"/><polygon points="129,45 117,53 125,58"/>
  <polygon points="90,13 104,38 90,52 76,38"/><polygon points="74,19 84,38 72,43 66,27"/><polygon points="106,19 96,38 108,43 114,27"/><polygon points="61,25 73,39 63,44 55,31"/><polygon points="119,25 107,39 117,44 125,31"/><polygon points="72,45 88,54 76,73 63,55"/><polygon points="108,45 92,54 104,73 117,55"/><polygon points="88,56 90,91 76,73"/><polygon points="92,56 90,91 104,73"/>
  <polygon points="56,79 78,96 67,119 45,101"/><polygon points="124,79 102,96 113,119 135,101"/><polygon points="80,97 90,109 100,97 90,128"/><polygon points="68,121 87,132 90,144 61,127"/><polygon points="112,121 93,132 90,144 119,127"/>
</g>
</svg>